<svg xmlns="http://www.w3.org/2000/svg" width="99.816" height="99.816" viewBox="0 0 99.816 99.816">
  <g id="Group_81" data-name="Group 81" transform="translate(-1358.039 -3627)">
    <g id="Group_34" data-name="Group 34" transform="translate(-9775.569 2626.908)">
      <circle id="Ellipse_5" data-name="Ellipse 5" cx="49.908" cy="49.908" r="49.908" transform="translate(11133.608 1000.092)" fill="#a96"/>
    </g>
    <g id="electric_car" transform="translate(1383.039 3653)">
      <path id="Path_69" data-name="Path 69" d="M16.707,41.268a4.712,4.712,0,1,1-4.712-4.712A4.712,4.712,0,0,1,16.707,41.268ZM38.7,36.556a4.712,4.712,0,1,0,4.712,4.712A4.712,4.712,0,0,0,38.7,36.556Zm9.424-4.712v9.424H46.551a7.854,7.854,0,0,0-15.707,0H19.849a7.854,7.854,0,1,0-15.707,0H1V31.844a28.43,28.43,0,0,1,.926-6.6L3.341,20.3a5.981,5.981,0,0,1,5.513-4.163H24.561a11.738,11.738,0,0,1,6.565,2.371l6.786,5.655,6.157,2.057a6.222,6.222,0,0,1,4.053,5.623Zm-18.27-4.712H25.139v-5.32L19.27,30.273h4.712v5.32ZM38.7,6.712V3.571H35.556V2H30.844a6.277,6.277,0,0,0-6.06,4.712H15.136a4.717,4.717,0,0,0-4.712,4.712v1.571h3.141V11.424a1.572,1.572,0,0,1,1.571-1.571h9.647a6.277,6.277,0,0,0,6.06,4.712h4.712V12.995H38.7V9.854H35.556V6.712Z" fill="#e0e3d2"/>
    </g>
  </g>
</svg>
