<svg xmlns="http://www.w3.org/2000/svg" width="99.816" height="99.816" viewBox="0 0 99.816 99.816">
  <g id="Group_82" data-name="Group 82" transform="translate(-1048.039 -3792)">
    <g id="Group_38" data-name="Group 38" transform="translate(-10085.569 2791.908)">
      <circle id="Ellipse_5" data-name="Ellipse 5" cx="49.908" cy="49.908" r="49.908" transform="translate(11133.608 1000.092)" fill="#a96"/>
    </g>
    <g id="table" transform="translate(1071.039 3739.667)">
      <g id="Group_54" data-name="Group 54" transform="translate(0 85.333)">
        <g id="Group_53" data-name="Group 53">
          <path id="Path_73" data-name="Path 73" d="M355.637,85.333a3.3,3.3,0,0,0-3.3,3.3v14.3h-7.7a3.3,3.3,0,1,0,0,6.6h5.5v8.8h-3.3a1.1,1.1,0,1,0,0,2.2h8.8a1.1,1.1,0,1,0,0-2.2h-3.3v-8.8h3.3a3.3,3.3,0,0,0,3.3-3.3V88.634A3.3,3.3,0,0,0,355.637,85.333Z" transform="translate(-306.122 -85.333)" fill="#e0e3d2"/>
          <path id="Path_74" data-name="Path 74" d="M14.3,102.938H6.6v-14.3a3.3,3.3,0,0,0-6.6,0v17.605a3.3,3.3,0,0,0,3.3,3.3H6.6v8.8H3.3a1.1,1.1,0,1,0,0,2.2h8.8a1.1,1.1,0,1,0,0-2.2H8.8v-8.8h5.5a3.3,3.3,0,0,0,0-6.6Z" transform="translate(0 -85.333)" fill="#e0e3d2"/>
          <path id="Path_75" data-name="Path 75" d="M125.061,159.073a7.464,7.464,0,0,0,8.31,0,4.886,4.886,0,0,1,3-.937,1.1,1.1,0,0,0,1.1-1.1v-3.3a4.406,4.406,0,0,0-4.4-4.4H111.067a4.406,4.406,0,0,0-4.4,4.4v3.3a1.1,1.1,0,0,0,1.1,1.1,4.864,4.864,0,0,1,2.995.937,7.446,7.446,0,0,0,8.3,0,5.373,5.373,0,0,1,1.909-.834v17.5h-4.4a1.1,1.1,0,0,0,0,2.2h11a1.1,1.1,0,1,0,0-2.2h-4.4v-17.5A5.432,5.432,0,0,1,125.061,159.073Z" transform="translate(-95.663 -142.731)" fill="#e0e3d2"/>
        </g>
      </g>
    </g>
  </g>
</svg>
