<svg xmlns="http://www.w3.org/2000/svg" width="99.816" height="99.816" viewBox="0 0 99.816 99.816">
  <g id="Group_83" data-name="Group 83" transform="translate(-652.039 -3792)">
    <g id="Group_36" data-name="Group 36" transform="translate(-10481.569 2791.908)">
      <circle id="Ellipse_5" data-name="Ellipse 5" cx="49.908" cy="49.908" r="49.908" transform="translate(11133.608 1000.092)" fill="#a96"/>
    </g>
    <path id="policemen" d="M120.068,79.931a1.286,1.286,0,0,1-.878.342,1.335,1.335,0,0,1-.866-.329,1.3,1.3,0,0,1-1.744,0l-.86.86a1.616,1.616,0,0,1,.348.781c0,.7-.256.7-.256,1.561,0,2.165,2.513,2.867,2.513,2.867s2.519-.7,2.519-2.867h.006c0-.866-.262-.866-.262-1.561a1.683,1.683,0,0,1,.348-.781Zm-12.552-3.678-2.44,2.44.61,2.44h3.66l.61-2.44ZM100.959,73.6l1.525,5.19a.3.3,0,0,0,.506.116l4.526-4.483,4.538,4.5a.292.292,0,0,0,.5-.1l1.732-5.209a5.113,5.113,0,0,1,1.281.207,26.612,26.612,0,0,1,9.515,4.636,5.092,5.092,0,0,1,1.952,3.9v9.759H109.955l-.653-9.759h-3.55l-.677,9.759H88V82.353a5.092,5.092,0,0,1,1.952-3.9,31.385,31.385,0,0,1,9.515-4.636A6.313,6.313,0,0,1,100.959,73.6ZM97.952,59.029a17.317,17.317,0,0,0,19.172.3A10.011,10.011,0,0,1,117.275,61a9.759,9.759,0,1,1-19.323-1.976ZM106.3,48.837l-.8.762a1.443,1.443,0,0,1,.305.689c0,.61-.226.61-.226,1.378,0,1.915,2.22,2.525,2.22,2.525s2.22-.616,2.22-2.525h.024c0-.768-.226-.768-.238-1.378a1.475,1.475,0,0,1,.3-.689l-.762-.762a1.112,1.112,0,0,1-.744.3,1.186,1.186,0,0,1-.768-.287,1.156,1.156,0,0,1-.769.287,1.112,1.112,0,0,1-.768-.3Zm.817-4.209a1.5,1.5,0,0,1,1.415,0c1.385.732,4.782,2.348,6.154,2.873a45.34,45.34,0,0,0,5.7,1.561l-.024.018a1.476,1.476,0,0,1,.726,2.483L118.647,54v.726a2.641,2.641,0,0,1-1.22,2.22l-1.263.817A15.565,15.565,0,0,1,98.9,57.5l-.787-.543a2.641,2.641,0,0,1-1.141-2.171v-.8l-2.44-2.44a1.476,1.476,0,0,1,.726-2.483,45.337,45.337,0,0,0,5.7-1.561c1.372-.525,4.77-2.141,6.154-2.873Z" transform="translate(594.041 3773.55)" fill="#e0e3d2" fill-rule="evenodd"/>
  </g>
</svg>
