<svg xmlns="http://www.w3.org/2000/svg" width="99.816" height="99.816" viewBox="0 0 99.816 99.816">
  <g id="Group_79" data-name="Group 79" transform="translate(-652.039 -3627)">
    <g id="Group_32" data-name="Group 32" transform="translate(-10481.569 2626.908)">
      <circle id="Ellipse_5" data-name="Ellipse 5" cx="49.908" cy="49.908" r="49.908" transform="translate(11133.608 1000.092)" fill="#a96"/>
    </g>
    <g id="forest" transform="translate(677.039 3638)">
      <path id="Path_60" data-name="Path 60" d="M47.609,293.839H38.891v-8.75a10.073,10.073,0,0,1-1.4.1,10.217,10.217,0,0,1-4.349-.976v9.622H27.4v-17.43a10.141,10.141,0,0,1-2.874-.809,10.161,10.161,0,0,1-2.874.809v17.43H15.9v-9.622a10.219,10.219,0,0,1-4.351.977,10.089,10.089,0,0,1-1.4-.1v8.749H1.437a1.437,1.437,0,1,0,0,2.874H47.609a1.437,1.437,0,1,0,0-2.874Z" transform="translate(0 -234.732)" fill="#e0e3d2"/>
      <path id="Path_61" data-name="Path 61" d="M91,33.243a5.753,5.753,0,0,0,5.748,5.748,5.619,5.619,0,0,0,2.7-.688,7.245,7.245,0,0,0,7.36-.776,7.244,7.244,0,0,0,7.36.776,5.619,5.619,0,0,0,2.7.688,5.736,5.736,0,0,0,2.822-10.736,5.494,5.494,0,0,0,.052-.759,5.7,5.7,0,0,0-5.892-5.746,7.185,7.185,0,0,0-14.08,0A5.672,5.672,0,0,0,93.874,27.5a5.5,5.5,0,0,0,.052.759A5.742,5.742,0,0,0,91,33.243Z" transform="translate(-82.283)" fill="#e0e3d2"/>
      <path id="Path_62" data-name="Path 62" d="M331.754,178a5.5,5.5,0,0,0,.052-.759,5.747,5.747,0,0,0-3.226-5.166,8.466,8.466,0,0,1,.353,2.292,8.6,8.6,0,0,1-11.388,8.158,10.07,10.07,0,0,1-1.544.335V188.5a7.058,7.058,0,0,0,2.874-1.229,7.244,7.244,0,0,0,7.36.776,5.619,5.619,0,0,0,2.7.688A5.7,5.7,0,0,0,331.754,178Z" transform="translate(-285.73 -141.123)" fill="#e0e3d2"/>
      <path id="Path_63" data-name="Path 63" d="M5.843,188.569a5.618,5.618,0,0,0,2.7-.688,7.245,7.245,0,0,0,7.36-.776,7.051,7.051,0,0,0,2.874,1.23v-5.642a10.037,10.037,0,0,1-1.545-.335,8.541,8.541,0,0,1-2.766.463A8.631,8.631,0,0,1,5.843,174.2a8.468,8.468,0,0,1,.359-2.309,5.827,5.827,0,0,0-3.328,5.183,5.5,5.5,0,0,0,.052.759A5.742,5.742,0,0,0,0,182.822a5.836,5.836,0,0,0,5.843,5.747Z" transform="translate(0 -140.958)" fill="#e0e3d2"/>
    </g>
  </g>
</svg>
