<svg xmlns="http://www.w3.org/2000/svg" width="99.816" height="99.816" viewBox="0 0 99.816 99.816">
  <g id="Group_76" data-name="Group 76" transform="translate(-1048.039 -3460)">
    <g id="Group_37" data-name="Group 37" transform="translate(-10085.569 2459.908)">
      <circle id="Ellipse_5" data-name="Ellipse 5" cx="49.908" cy="49.908" r="49.908" transform="translate(11133.608 1000.092)" fill="#a96"/>
    </g>
    <path id="meditation" d="M48.516,33.263H46.78a1.733,1.733,0,0,1-1.4-.714L35.654,19.184a4.108,4.108,0,0,0-3.264-1.613H30.252a.836.836,0,0,1-.836-.836V14.753a1.159,1.159,0,0,1,.527-.968,7.389,7.389,0,1,0-8.106,0,1.162,1.162,0,0,1,.53.97v1.981a.836.836,0,0,1-.836.836H18.825a4.108,4.108,0,0,0-3.264,1.613L5.853,32.657a1.733,1.733,0,0,1-1.406.72h-1.2a3.251,3.251,0,1,0,0,6.5H6.444A6.437,6.437,0,0,0,9.579,51.939H36.852L15.427,40.068a14.805,14.805,0,0,0-5.354-1H9.947a3.72,3.72,0,0,0,.675-.7l6.173-9.192v8.1c.03.014.06.027.089.044l9.072,5.028,8.465-5.078v-8.1L40.61,38.25a3.719,3.719,0,0,0,.709.727,14.969,14.969,0,0,0-6.9,1.837V40.8l-5.4,3.24,13.862,7.683a6.439,6.439,0,0,0,5.193-6.316v-.031a6.387,6.387,0,0,0-3.33-5.615h3.771a3.251,3.251,0,1,0,0-6.5Z" transform="translate(1072.039 3483.784)" fill="#e0e3d2"/>
  </g>
</svg>
