<svg xmlns="http://www.w3.org/2000/svg" width="99.816" height="99.816" viewBox="0 0 99.816 99.816">
  <g id="Group_74" data-name="Group 74" transform="translate(-254.039 -3460)">
    <g id="Group_27" data-name="Group 27" transform="translate(-10879.569 2459.908)">
      <circle id="Ellipse_5" data-name="Ellipse 5" cx="49.908" cy="49.908" r="49.908" transform="translate(11133.608 1000.092)" fill="#a96"/>
    </g>
    <path id="helicopter" d="M60.28,21.33H58.15a1.71,1.71,0,0,0-1.59,1.06L53.5,29.73H41.75l.36-.72a3.65,3.65,0,0,0-3.27-5.28,1.18,1.18,0,0,1-1.18-1.19,1.81,1.81,0,0,0-1.81-1.81H34.16V18.22a131.263,131.263,0,0,1,14,.9,1.76,1.76,0,1,0,0-3.49,131.277,131.277,0,0,1-14,.91V14.83a1.5,1.5,0,0,0-3,0v1.71a131.266,131.266,0,0,1-14-.91,1.76,1.76,0,1,0,0,3.49,131.25,131.25,0,0,1,14-.9v2.51H29.48a1.87,1.87,0,0,0-1.82,1.86,1.17,1.17,0,0,1-1.18,1.14h-.27A26.638,26.638,0,0,0,2.4,38.426a3.65,3.65,0,0,0,3.248,5.3H10v3.94H3.5a1.5,1.5,0,0,0,0,3h32a1.5,1.5,0,1,0,0-3H31V43.38A10.31,10.31,0,0,0,37.6,38l.45-.89L59.57,35A2.68,2.68,0,0,0,62,32.29V23.05a1.72,1.72,0,0,0-1.72-1.72Zm-54.34,15c3.51-5.1,9.75-8.63,15.72-10L17.36,35a2.52,2.52,0,0,1-2.26,1.4ZM28,47.67H13V43.73H28Z" transform="translate(271.039 3478.67)" fill="#e0e3d2"/>
  </g>
</svg>
