<svg xmlns="http://www.w3.org/2000/svg" width="58" height="58" viewBox="0 0 58 58">
  <g id="Group_86" data-name="Group 86" transform="translate(-521 -934)">
    <circle id="Ellipse_3" data-name="Ellipse 3" cx="29" cy="29" r="29" transform="translate(521 934)" fill="#555e47"/>
    <g id="Layer_2" data-name="Layer 2" transform="translate(532.771 945.113)">
      <path id="Path_27" data-name="Path 27" d="M26.265,4.24A14.222,14.222,0,1,0,8.568,26.5a24.107,24.107,0,0,1,6.2,6.666l1.107,1.84a1.581,1.581,0,0,0,2.709,0l1.061-1.767A20.108,20.108,0,0,1,25.3,26.92a14.211,14.211,0,0,0,.967-22.688ZM17.226,21.551a6.323,6.323,0,1,1,6.323-6.323A6.323,6.323,0,0,1,17.226,21.551Z" transform="translate(0 0)" fill="#dfe1d1"/>
    </g>
  </g>
</svg>
