<svg xmlns="http://www.w3.org/2000/svg" width="58" height="58" viewBox="0 0 58 58">
  <g id="Group_85" data-name="Group 85" transform="translate(-139 -934)">
    <circle id="Ellipse_2" data-name="Ellipse 2" cx="29" cy="29" r="29" transform="translate(139 934)" fill="#555e47"/>
    <path id="all-directions" d="M30.823,16.411,25.894,21.34a.731.731,0,0,1-1.248-.517V17.956H17.956v6.691h2.868a.731.731,0,0,1,.517,1.248l-4.929,4.929-4.929-4.929A.731.731,0,0,1,12,24.647h2.868V17.956H8.176v2.868a.731.731,0,0,1-1.248.517L2,16.411l4.929-4.929A.731.731,0,0,1,8.176,12v2.868h6.691V8.176H12a.731.731,0,0,1-.517-1.248L16.411,2,21.34,6.929a.731.731,0,0,1-.517,1.248H17.956v6.691h6.691V12a.731.731,0,0,1,1.248-.517Z" transform="translate(151.588 946.589)" fill="#dfe1d1"/>
  </g>
</svg>
