<svg width="217" height="56" viewBox="0 0 217 56" fill="none" xmlns="http://www.w3.org/2000/svg">
<path d="M2.72145 28.2576C2.72145 14.5301 13.5044 3.4064 26.8062 3.4064C40.1079 3.4064 50.8961 14.5355 50.8961 28.2576C50.8961 41.9797 40.1132 53.1089 26.8062 53.1089C13.4991 53.1089 2.72145 41.9797 2.72145 28.2576ZM26.8062 0.748047C12.0839 0.748047 0.144531 13.0702 0.144531 28.2576C0.144531 43.4451 12.0839 55.7672 26.8062 55.7672C41.5284 55.7672 53.4678 43.4505 53.4678 28.2576C53.4678 13.0647 41.5337 0.748047 26.8062 0.748047Z" fill="#5C5C5C"/>
<path d="M25.1162 32.7954C25.1162 33.7541 25.8766 34.544 26.8112 34.544C27.7459 34.544 28.501 33.7541 28.501 32.7954C28.501 31.8366 27.7459 31.0467 26.8112 31.0467C25.8766 31.0467 25.1162 31.8312 25.1162 32.7954ZM39.4054 12.9449C39.2892 12.9449 39.1836 12.9939 39.0939 13.0702L26.7796 25.7682L14.4705 13.0756C14.3966 12.9885 14.2804 12.9395 14.159 12.9395H12.427C12.1841 12.9395 11.9834 13.141 11.9834 13.397V43.1128C11.9834 43.358 12.1841 43.5704 12.427 43.5704H14.0639C14.3121 43.5704 14.5075 43.358 14.5075 43.1128V16.7853L24.9947 27.604L21.9003 30.7962C23.9861 30.7962 25.4066 30.8506 26.7796 29.4343C28.1525 30.8506 29.5783 30.7962 31.6641 30.7962L28.5644 27.604L39.0516 16.769V43.1128C39.0516 43.358 39.247 43.5704 39.4952 43.5704H41.185C41.4279 43.5704 41.6233 43.358 41.6233 43.1128V13.4025C41.6233 13.1465 41.4279 12.9449 41.185 12.9449H39.4054Z" fill="#5C5C5C"/>
<path d="M69.4466 38.5753H65.7871V51.3277H69.4466C73.3965 51.3277 75.9153 48.5659 75.9153 44.976C75.9153 41.3862 73.3912 38.5753 69.4466 38.5753ZM69.4466 53.011H64.0234V36.8975H69.4466C74.3522 36.8975 77.7477 40.3729 77.7477 44.9324C77.7477 49.4919 74.3575 53.011 69.4466 53.011Z" fill="#5C5C5C"/>
<path d="M92.7654 38.5535H83.234V44.0554H91.7621V45.7114H83.234V51.355H92.8711V53.011H81.4756V36.8975H92.7654V38.5535Z" fill="#5C5C5C"/>
<path d="M108.18 36.8975H110.081L103.364 53.1254H101.801L95.084 36.8975H97.0484L102.604 50.7775L108.18 36.8975Z" fill="#5C5C5C"/>
<path d="M124.449 38.5535H114.918V44.0554H123.446V45.7114H114.918V51.355H124.56V53.011H113.159V36.8975H124.449V38.5535Z" fill="#5C5C5C"/>
<path d="M128.108 36.8975H129.867V51.3277H138.659V53.011H128.108V36.8975Z" fill="#5C5C5C"/>
<path d="M148.28 38.3024C144.711 38.3024 142.165 41.2495 142.165 44.9319C142.165 48.6144 144.753 51.6051 148.323 51.6051C151.892 51.6051 154.437 48.658 154.437 44.9755C154.437 41.293 151.85 38.3024 148.28 38.3024ZM148.28 53.2829C143.528 53.2829 140.333 49.437 140.333 44.9755C140.333 40.5141 143.57 36.6191 148.323 36.6191C153.075 36.6191 156.264 40.465 156.264 44.9265C156.264 49.3879 153.027 53.2829 148.275 53.2829H148.28Z" fill="#5C5C5C"/>
<path d="M165.701 38.5753H161.752V45.6624H165.612C168.199 45.6624 169.894 44.2352 169.894 42.0943C169.894 39.7683 168.22 38.5698 165.701 38.5698M165.548 47.3239H161.757V53.011H159.993V36.8975H165.839C169.366 36.8975 171.684 38.8313 171.684 42.0289C171.684 45.5262 168.87 47.3239 165.548 47.3239Z" fill="#5C5C5C"/>
<path d="M186.184 38.5535H176.658V44.0554H185.181V45.7114H176.658V51.355H186.301V53.011H174.895V36.8975H186.184V38.5535Z" fill="#5C5C5C"/>
<path d="M196.429 38.5753H191.613V45.1122H196.408C198.752 45.1122 200.426 43.8702 200.426 41.7729C200.426 39.6757 198.953 38.5753 196.434 38.5753M200.6 53.011L196.07 46.7519H191.607V53.011H189.844V36.8975H196.561C199.998 36.8975 202.206 38.8095 202.206 41.7076C202.206 44.3986 200.421 45.9674 197.965 46.425L202.765 53.0055H200.6V53.011Z" fill="#5C5C5C"/>
<path d="M211.579 44.0771C215.059 44.856 216.664 46.1689 216.664 48.6583C216.664 51.442 214.431 53.2397 211.331 53.2397C208.854 53.2397 206.827 52.3844 204.952 50.663L206.045 49.3284C207.672 50.8482 209.235 51.6054 211.4 51.6054C213.565 51.6054 214.88 50.4778 214.88 48.8436C214.88 47.3237 214.098 46.4685 210.819 45.7549C207.228 44.9486 205.575 43.7502 205.575 41.081C205.575 38.4117 207.74 36.6631 210.708 36.6631C212.984 36.6631 214.616 37.3331 216.2 38.646L215.17 40.0514C213.718 38.8312 212.271 38.3028 210.66 38.3028C208.633 38.3028 207.339 39.4522 207.339 40.9284C207.339 42.4047 208.142 43.3253 211.579 44.0825" fill="#5C5C5C"/>
<path d="M73.8775 18.8827H73.7613L66.2365 7.49754V24.7278H63.9658V3.42285H66.321L73.8458 15.0477L81.3706 3.42285H83.731V24.7278H81.4023V7.4703L73.8775 18.8827Z" fill="#5C5C5C"/>
<path d="M98.2784 6.07049L93.5576 16.9381H102.968L98.2784 6.07049ZM108.808 24.728H106.3L103.881 19.0953H92.6388L90.1886 24.728H87.8018L97.2117 3.27051H99.3979L108.808 24.728Z" fill="#5C5C5C"/>
<path d="M112.88 3.42285H115.209V22.5052H126.836V24.7278H112.88V3.42285Z" fill="#5C5C5C"/>
<path d="M139.848 6.07049L135.127 16.9381H144.537L139.843 6.07049H139.848ZM150.378 24.728H147.869L145.451 19.0953H134.208L131.758 24.728H129.366L138.776 3.27051H140.962L150.372 24.728H150.378Z" fill="#5C5C5C"/>
<path d="M168.759 18.7302C168.759 16.3878 166.868 15.0477 163.267 15.0477H156.745V22.5652H163.679C166.805 22.5652 168.753 21.1379 168.753 18.7302M167.607 9.08274C167.607 6.95279 165.986 5.58004 163.034 5.58004H156.751V12.9177H162.86C165.664 12.9177 167.607 11.6104 167.607 9.08274ZM169.968 8.745C169.968 11.545 168.315 12.9777 166.694 13.7076C169.144 14.4703 171.119 15.9302 171.119 18.8827C171.119 22.5652 168.141 24.7278 163.626 24.7278H154.448V3.42285H163.24C167.312 3.42285 169.968 5.49288 169.968 8.75045V8.745Z" fill="#5C5C5C"/>
<path d="M184.452 6.07049L179.731 16.9381H189.141L184.452 6.07049ZM194.987 24.728H192.478L190.06 19.0953H178.817L176.367 24.728H173.98L183.39 3.27051H185.571L194.981 24.728H194.987Z" fill="#5C5C5C"/>
<path d="M207.762 5.63996H201.388V14.2851H207.73C210.83 14.2851 213.042 12.6399 213.042 9.87262C213.042 7.10532 211.094 5.63996 207.762 5.63996ZM213.28 24.7278L207.292 16.4477H201.393V24.7278H199.064V3.42285H207.946C212.488 3.42285 215.413 5.95046 215.413 9.78546C215.413 13.3481 213.053 15.4181 209.805 16.0228L216.147 24.7278H213.285H213.28Z" fill="#5C5C5C"/>
</svg>
