<svg xmlns="http://www.w3.org/2000/svg" width="556.809" height="78.057" viewBox="0 0 556.809 78.057">
  <g id="Group_88" data-name="Group 88" transform="translate(-681.596 -84.65)">
    <g id="Layer_1" data-name="Layer 1" transform="translate(681.596 84.65)">
      <g id="Group_18" data-name="Group 18">
        <text id="BY_MALABAR_DEVELOPERS_" data-name="BY MALABAR DEVELOPERS   " transform="translate(114.905 73.057)" fill="#fff" font-size="18" font-family="Gotham-Book, Gotham"><tspan x="0" y="0" letter-spacing="0.12em">B</tspan><tspan y="0" letter-spacing="0.15em">Y</tspan><tspan y="0" xml:space="preserve" letter-spacing="0.13em"> MALABAR</tspan><tspan y="0" xml:space="preserve" letter-spacing="0.14em"> DEVE</tspan><tspan y="0" letter-spacing="0.1em">L</tspan><tspan y="0" letter-spacing="0.14em">OPER</tspan><tspan y="0" letter-spacing="0.16em">S </tspan><tspan y="0" xml:space="preserve" font-family="Segoe UI">  </tspan></text>
        <g id="Group_17" data-name="Group 17">
          <path id="Path_3" data-name="Path 3" d="M5.625,1.25l12.391,27.2,12.4-27.2h5.567V41.418H30.474V5.493L16.247,36.653,1.952,5.319v36.09H0V1.25Z" transform="translate(0 -0.042)" fill="#fff"/>
          <path id="Path_4" data-name="Path 4" d="M67.995.24a23.317,23.317,0,0,1,9.53,1.807A19.661,19.661,0,0,1,88.378,13.559a22.521,22.521,0,0,1,0,15.484A19.661,19.661,0,0,1,77.524,40.553a23.286,23.286,0,0,1-9.53,1.807,23.492,23.492,0,0,1-9.559-1.807,20.152,20.152,0,0,1-6.824-4.765,19.458,19.458,0,0,1-4.079-6.746,22.978,22.978,0,0,1,0-15.484,19.547,19.547,0,0,1,4.079-6.746,20.247,20.247,0,0,1,6.824-4.765A23.459,23.459,0,0,1,67.995.24Zm0,1.662a14.279,14.279,0,0,0-7.027,1.662,15.345,15.345,0,0,0-5.016,4.388,19.31,19.31,0,0,0-3.016,6.224,25.673,25.673,0,0,0,0,14.227,19.31,19.31,0,0,0,3.016,6.224,15.543,15.543,0,0,0,5.016,4.388,14.279,14.279,0,0,0,7.027,1.662,14.114,14.114,0,0,0,7-1.662,15.441,15.441,0,0,0,4.987-4.388A19.511,19.511,0,0,0,82.995,28.4a25.673,25.673,0,0,0,0-14.227,19.31,19.31,0,0,0-3.016-6.224,15.644,15.644,0,0,0-4.987-4.388,14.114,14.114,0,0,0-7-1.662Z" transform="translate(-1.547 -0.008)" fill="#fff"/>
          <path id="Path_5" data-name="Path 5" d="M104.539,1.25l24.1,32.533V1.25H130.6V41.418h-1.952V41.3l-24.5-33.055V41.418h-1.952V5.551l-3.16-4.3Z" transform="translate(-3.316 -0.042)" fill="#fff"/>
          <path id="Path_6" data-name="Path 6" d="M138.87,3.26V1.25h35.4V3.26H159.35V41.418h-5.509V3.26H138.86Z" transform="translate(-4.65 -0.042)" fill="#fff"/>
          <path id="Path_7" data-name="Path 7" d="M174.97,41.419,189.545,5.387,187.883,1.26h5.567l16.237,40.168h-5.509l-4.649-11.366H181.745L177.1,41.428H174.97Zm7.519-13.309h16.3L190.637,8.026Z" transform="translate(-5.859 -0.042)" fill="#fff"/>
          <path id="Path_8" data-name="Path 8" d="M220.629,1.25l24.1,32.533V1.25h1.952V41.418h-1.952V41.3l-24.5-33.055V41.418h-1.952V5.551l-3.151-4.3h5.509Z" transform="translate(-7.204 -0.042)" fill="#fff"/>
          <path id="Path_9" data-name="Path 9" d="M255.43,41.419,270.005,5.387,268.343,1.26h5.567l16.237,40.168h-5.509l-4.649-11.366H262.205l-4.649,11.366H255.43Zm7.52-13.309h16.3L271.1,8.026Z" transform="translate(-8.553 -0.042)" fill="#fff"/>
          <path id="Path_10" data-name="Path 10" d="M327.13,41.418V1.25h28.638V3.26H332.7V16.743h16.411V18.7H332.7v20.77h23.071v1.952Z" transform="translate(-10.954 -0.042)" fill="#fff"/>
          <path id="Path_11" data-name="Path 11" d="M391.493,9.81l-1.72.174a6.848,6.848,0,0,0-.918-3.586,7.952,7.952,0,0,0-2.465-2.552A11.545,11.545,0,0,0,382.862,2.3a15.749,15.749,0,0,0-4.04-.512,16.606,16.606,0,0,0-4.591.6A12.64,12.64,0,0,0,370.7,3.963a7.118,7.118,0,0,0-2.242,2.291,5.4,5.4,0,0,0-.773,2.755,5.621,5.621,0,0,0,1.778,4.185,16.517,16.517,0,0,0,4.33,2.813q2.61,1.2,5.654,2.291a32.28,32.28,0,0,1,5.654,2.639,15.632,15.632,0,0,1,4.417,3.876,9.988,9.988,0,0,1,1.923,5.992,9.719,9.719,0,0,1-.831,4.446,10.756,10.756,0,0,1-2.813,3.789,13.918,13.918,0,0,1-4.649,2.61,19.392,19.392,0,0,1-6.4.976,20.032,20.032,0,0,1-4.852-.6,13.852,13.852,0,0,1-4.214-1.807,9.461,9.461,0,0,1-2.958-3.045,8.239,8.239,0,0,1-1.121-4.359l1.6-.174a6.834,6.834,0,0,0,.947,3.615,8.142,8.142,0,0,0,2.494,2.581,11.586,11.586,0,0,0,3.5,1.546,15.443,15.443,0,0,0,4.021.512,16.606,16.606,0,0,0,4.591-.6,12.023,12.023,0,0,0,3.528-1.633,7.737,7.737,0,0,0,2.262-2.378,5.406,5.406,0,0,0,.8-2.784,5.741,5.741,0,0,0-1.005-3.412,9.389,9.389,0,0,0-2.668-2.465,22.02,22.02,0,0,0-3.76-1.894c-1.392-.551-2.832-1.121-4.3-1.691s-2.919-1.208-4.33-1.894a17.29,17.29,0,0,1-3.789-2.465,12.006,12.006,0,0,1-2.726-3.383,10.7,10.7,0,0,1-1.179-4.707,10.054,10.054,0,0,1,.86-4.33,10.32,10.32,0,0,1,2.784-3.7A14.217,14.217,0,0,1,371.893.976a19.392,19.392,0,0,1,6.4-.976,19.915,19.915,0,0,1,4.881.6,14.28,14.28,0,0,1,4.214,1.807,9.452,9.452,0,0,1,2.986,3.045,8.24,8.24,0,0,1,1.121,4.359Z" transform="translate(-12.175 0)" fill="#fff"/>
          <path id="Path_12" data-name="Path 12" d="M396.55,3.251v-2h35.4V3.26H417.03V41.418h-5.509V3.251H396.54Z" transform="translate(-13.278 -0.042)" fill="#fff"/>
          <path id="Path_13" data-name="Path 13" d="M432.65,41.419,447.225,5.387,445.563,1.26h5.567l16.237,40.168h-5.509l-4.649-11.366H439.425l-4.649,11.366H432.65Zm7.52-13.309h16.3L448.317,8.026Z" transform="translate(-14.487 -0.042)" fill="#fff"/>
          <path id="Path_14" data-name="Path 14" d="M468.03,3.251v-2h35.4V3.26H488.51V41.418H483V3.251H468.02Z" transform="translate(-15.672 -0.042)" fill="#fff"/>
          <path id="Path_15" data-name="Path 15" d="M510.9,41.418V1.25h28.638V3.26H516.467V16.743h16.411V18.7H516.467v20.77h23.071v1.952Z" transform="translate(-17.108 -0.042)" fill="#fff"/>
          <path id="Path_16" data-name="Path 16" d="M575.134,9.81l-1.721.174a6.849,6.849,0,0,0-.918-3.586,7.954,7.954,0,0,0-2.465-2.552A11.544,11.544,0,0,0,566.5,2.3a15.75,15.75,0,0,0-4.04-.512,16.605,16.605,0,0,0-4.591.6,12.639,12.639,0,0,0-3.528,1.575A7.12,7.12,0,0,0,552.1,6.253a5.4,5.4,0,0,0-.773,2.755,5.62,5.62,0,0,0,1.778,4.185,16.513,16.513,0,0,0,4.33,2.813q2.61,1.2,5.654,2.291a32.271,32.271,0,0,1,5.654,2.639,15.63,15.63,0,0,1,4.417,3.876,9.99,9.99,0,0,1,1.924,5.992,9.72,9.72,0,0,1-.831,4.446,10.757,10.757,0,0,1-2.813,3.789,13.915,13.915,0,0,1-4.649,2.61,19.392,19.392,0,0,1-6.4.976,20.031,20.031,0,0,1-4.852-.6,13.853,13.853,0,0,1-4.214-1.807,9.458,9.458,0,0,1-2.958-3.045,8.239,8.239,0,0,1-1.121-4.359l1.6-.174a6.836,6.836,0,0,0,.947,3.615,8.14,8.14,0,0,0,2.494,2.581,11.587,11.587,0,0,0,3.5,1.546,15.443,15.443,0,0,0,4.021.512,16.606,16.606,0,0,0,4.591-.6,12.024,12.024,0,0,0,3.528-1.633,7.739,7.739,0,0,0,2.262-2.378A5.405,5.405,0,0,0,571,33.5a5.742,5.742,0,0,0-1.005-3.412,9.39,9.39,0,0,0-2.668-2.465,22.025,22.025,0,0,0-3.76-1.894c-1.392-.551-2.832-1.121-4.3-1.691s-2.919-1.208-4.33-1.894a17.283,17.283,0,0,1-3.789-2.465,12.006,12.006,0,0,1-2.726-3.383,10.731,10.731,0,0,1-1.179-4.707,10.057,10.057,0,0,1,.86-4.33,10.319,10.319,0,0,1,2.784-3.7A14.22,14.22,0,0,1,555.533.976a19.392,19.392,0,0,1,6.4-.976,19.917,19.917,0,0,1,4.881.6,14.283,14.283,0,0,1,4.214,1.807,9.454,9.454,0,0,1,2.986,3.045,8.239,8.239,0,0,1,1.121,4.359Z" transform="translate(-18.324 0)" fill="#fff"/>
        </g>
      </g>
    </g>
  </g>
</svg>
