<svg xmlns="http://www.w3.org/2000/svg" width="93" height="84.809" viewBox="0 0 93 84.809">
  <g id="noun-map-7411169" transform="translate(-4.499 -16.602)">
    <path id="Path_76" data-name="Path 76" d="M66.5,34.242V88.676l27-10.953V23.289Zm-30,26.426,27-15.59V34.242L51.059,29.2c-1.594,4.644-5.437,8.945-11.27,15.461l-3.293,3.7Zm27-12.133-27,15.59v13.6l27,10.953ZM35,14.672a9.571,9.571,0,0,1,6.77,16.34l-.008.008A9.572,9.572,0,1,1,35,14.672ZM39.644,19.6a6.578,6.578,0,1,0,1.926,4.644A6.557,6.557,0,0,0,39.644,19.6Zm-5-9A13.537,13.537,0,0,0,21.1,24.149c0,5.859,3.98,10.305,11.328,18.516L35,45.543l2.566-2.875c7.348-8.211,11.332-12.66,11.332-18.52A13.55,13.55,0,0,0,35.347,10.6Zm-11.7,1.856A16.515,16.515,0,0,1,34.644,7.6h.7A16.551,16.551,0,0,1,51.894,24.152a16.052,16.052,0,0,1-.137,2.1L65,31.625,94.371,19.707A1.467,1.467,0,0,1,95,19.57a1.5,1.5,0,0,1,1.5,1.5V78.738a1.51,1.51,0,0,1-.937,1.391L65.652,92.262a1.517,1.517,0,0,1-1.3,0L35,80.356,5.628,92.274A1.467,1.467,0,0,1,5,92.411a1.5,1.5,0,0,1-1.5-1.5V33.243a1.51,1.51,0,0,1,.938-1.391l13.8-5.6a16.007,16.007,0,0,1-.137-2.1,16.488,16.488,0,0,1,4.848-11.691ZM33.5,48.363l-3.3-3.707C24.368,38.144,20.52,33.844,18.926,29.2L6.5,34.246V88.68l27-10.953Z" transform="translate(1 9)" fill="#f2ede6"/>
  </g>
</svg>
