<svg xmlns="http://www.w3.org/2000/svg" width="99.816" height="99.816" viewBox="0 0 99.816 99.816">
  <g id="Group_78" data-name="Group 78" transform="translate(-254.039 -3627)">
    <g id="Group_31" data-name="Group 31" transform="translate(-10879.569 2626.908)">
      <circle id="Ellipse_5" data-name="Ellipse 5" cx="49.908" cy="49.908" r="49.908" transform="translate(11133.608 1000.092)" fill="#a96"/>
    </g>
    <g id="ball-of-basketball" transform="translate(281.916 3655)">
      <g id="_x31_4_26_" transform="translate(0.123)">
        <g id="Group_42" data-name="Group 42" transform="translate(0)">
          <path id="Path_52" data-name="Path 52" d="M167.524,3.491c.489-.648.41-2.022.341-3.234,0-.052-.006-.1-.008-.155-.685-.065-1.379-.1-2.081-.1a21.552,21.552,0,0,0-7.64,1.394,50.322,50.322,0,0,1,7.234,4.287A15.552,15.552,0,0,0,167.524,3.491Z" transform="translate(-144.165)" fill="#e0e3d2"/>
          <path id="Path_53" data-name="Path 53" d="M360,178.733a14.313,14.313,0,0,0-2.732.54c3.673,6.412,5.1,14.513,5.455,20.382a21.532,21.532,0,0,0,6.167-14.27C366.382,182.3,363.061,178.385,360,178.733Z" transform="translate(-325.689 -162.91)" fill="#e0e3d2"/>
          <path id="Path_54" data-name="Path 54" d="M31.88,36.972a19.112,19.112,0,0,0,6.938-3.207,45.926,45.926,0,0,0-8.065-4.493A21.694,21.694,0,0,0,21.274,39.5a42.365,42.365,0,0,1,7.966-2.022C30.111,37.32,31.012,37.152,31.88,36.972Z" transform="translate(-19.404 -26.684)" fill="#e0e3d2"/>
          <path id="Path_55" data-name="Path 55" d="M310.171,85.17q.345.347.688.707a22.976,22.976,0,0,1,2.306,2.873,15.165,15.165,0,0,1,3.658-.821c3.387-.383,6.4,2.3,8.984,5.254a21.521,21.521,0,0,0-5.336-11.727,30.684,30.684,0,0,0-5.078,1.037A24.849,24.849,0,0,0,310.171,85.17Z" transform="translate(-282.758 -74.254)" fill="#e0e3d2"/>
          <path id="Path_56" data-name="Path 56" d="M83,147.118c.886-3,1.913-5.166,3.9-6.571a20.206,20.206,0,0,0-1.935-2.392c-.322-.338-.647-.665-.974-.985-7.981,5.432-18.913,15.411-19.907,24.057a21.562,21.562,0,0,0,12.972,6.827c1.861-3.706,3.613-11.24,4.655-15.721C82.214,150.18,82.646,148.322,83,147.118Z" transform="translate(-58.431 -125.041)" fill="#e0e3d2"/>
          <path id="Path_57" data-name="Path 57" d="M15.644,104.032a77.077,77.077,0,0,1,8.409-6.712c-.9-.793-1.795-1.523-2.677-2.193a21.693,21.693,0,0,1-8.337,3.993c-.891.185-1.8.355-2.685.519-3.4.631-6.661,1.242-9.4,2.773A21.589,21.589,0,0,0,4,120.67C5.58,114.411,11,108.309,15.644,104.032Z" transform="translate(-0.123 -86.716)" fill="#e0e3d2"/>
          <path id="Path_58" data-name="Path 58" d="M262.78,13.728a28.581,28.581,0,0,1,6.226-3.2,31.927,31.927,0,0,1,3.758-.871,21.529,21.529,0,0,0-9.9-4.874c.083,1.509.119,3.166-.789,4.37a16.825,16.825,0,0,1-2.111,2.206C260.892,12.081,261.837,12.871,262.78,13.728Z" transform="translate(-236.988 -4.358)" fill="#e0e3d2"/>
          <path id="Path_59" data-name="Path 59" d="M242.421,201.349c-.337,1.143-.763,2.973-1.255,5.092-1.454,6.256-2.845,11.854-4.47,15.424.231.007.461.018.694.018a21.511,21.511,0,0,0,13.341-4.616c-.145-6.142-1.617-14.828-5.326-21.277C243.966,197.058,243.192,198.74,242.421,201.349Z" transform="translate(-215.779 -178.66)" fill="#e0e3d2"/>
        </g>
      </g>
    </g>
  </g>
</svg>
