<svg xmlns="http://www.w3.org/2000/svg" width="99.816" height="99.816" viewBox="0 0 99.816 99.816">
  <g id="Group_77" data-name="Group 77" transform="translate(-1358.039 -3460)">
    <g id="Group_30" data-name="Group 30" transform="translate(-9775.569 2459.908)">
      <circle id="Ellipse_5" data-name="Ellipse 5" cx="49.908" cy="49.908" r="49.908" transform="translate(11133.608 1000.092)" fill="#a96"/>
    </g>
    <g id="lotus" transform="translate(1381.039 3429.06)">
      <g id="Group_39" data-name="Group 39" transform="translate(0 89.044)">
        <path id="Path_45" data-name="Path 45" d="M5.71,335.427a25.575,25.575,0,0,1-2.66-3.137,26.585,26.585,0,0,0-2.862,2.063.518.518,0,0,0-.11.668c1.022,1.674,5.467,8.353,11.937,9.42a14.711,14.711,0,0,0,8.1-1.253A31.411,31.411,0,0,1,5.71,335.427Z" transform="translate(-0.001 -332.29)" fill="#e0e3d2"/>
        <path id="Path_46" data-name="Path 46" d="M334.845,332.29a25.575,25.575,0,0,1-2.66,3.137,31.409,31.409,0,0,1-14.407,7.76,14.711,14.711,0,0,0,8.1,1.253c6.47-1.067,10.915-7.746,11.937-9.42a.518.518,0,0,0-.11-.668A26.557,26.557,0,0,0,334.845,332.29Z" transform="translate(-284.866 -332.29)" fill="#e0e3d2"/>
      </g>
      <g id="Group_40" data-name="Group 40" transform="translate(10.398 62.432)">
        <path id="Path_47" data-name="Path 47" d="M106.525,85.978a32.707,32.707,0,0,1,2.252-6.161,35.36,35.36,0,0,0-5.861-4.4.518.518,0,0,0-.749.268,35.4,35.4,0,0,0-1.77,7.329A32.566,32.566,0,0,1,106.525,85.978Z" transform="translate(-100.397 -75.347)" fill="#e0e3d2"/>
        <path id="Path_48" data-name="Path 48" d="M339.076,83.016a35.4,35.4,0,0,0-1.77-7.329.517.517,0,0,0-.749-.268,35.359,35.359,0,0,0-5.861,4.4,32.714,32.714,0,0,1,2.252,6.161A32.566,32.566,0,0,1,339.076,83.016Z" transform="translate(-306.845 -75.347)" fill="#e0e3d2"/>
      </g>
      <g id="Group_41" data-name="Group 41" transform="translate(0 71.02)">
        <path id="Path_49" data-name="Path 49" d="M15.716,166.664a24.865,24.865,0,0,1,.19-3.039A33.655,33.655,0,0,0,.574,158.272a.526.526,0,0,0-.572.572c.225,2.49,1.486,11.971,7.9,18.389,4.268,4.268,9.89,6.255,13.91,7.173C19.288,180.739,15.716,174.218,15.716,166.664Z" transform="translate(0 -158.27)" fill="#e0e3d2"/>
        <path id="Path_50" data-name="Path 50" d="M322.6,158.272a33.654,33.654,0,0,0-15.332,5.353,24.84,24.84,0,0,1,.19,3.038c0,7.555-3.572,14.075-6.1,17.742,4.02-.919,9.642-2.905,13.91-7.173,6.418-6.418,7.678-15.9,7.9-18.389A.526.526,0,0,0,322.6,158.272Z" transform="translate(-270.15 -158.27)" fill="#e0e3d2"/>
      </g>
      <path id="Path_51" data-name="Path 51" d="M197.124,79.415c0,8.928-5.718,16.4-7.293,18.288a.518.518,0,0,1-.8,0c-1.576-1.889-7.293-9.36-7.293-18.288s5.718-16.4,7.293-18.288a.518.518,0,0,1,.8,0C191.406,63.016,197.124,70.486,197.124,79.415Z" transform="translate(-162.919)" fill="#e0e3d2"/>
    </g>
  </g>
</svg>
